<svg width="100" height="100" viewBox="0 0 100 100" fill="none" xmlns="http://www.w3.org/2000/svg">
<path fill-rule="evenodd" clip-rule="evenodd" d="M27.1266 35.2964C26.9358 32.6499 27.1602 30.1559 27.1602 30.1559C26.6716 29.7083 25.8147 28.9077 24.8628 28.2175C23.3221 27.1001 21.5321 26.2712 20.6499 27.693C19.8567 28.9719 21.0387 31.8901 21.2591 33.2667C21.9075 37.3216 22.4696 40.9428 27.1264 35.2964H27.1266Z" fill="#F9C795"/>
<path fill-rule="evenodd" clip-rule="evenodd" d="M25.0396 30.0656C24.9978 29.8966 24.9229 29.7376 24.8192 29.5979C24.7154 29.4582 24.5849 29.3405 24.4353 29.2517C24.2856 29.1629 24.1198 29.1047 23.9474 29.0806C23.7751 29.0564 23.5997 29.0668 23.4314 29.1111C23.2631 29.1554 23.1052 29.2327 22.9671 29.3385C22.829 29.4444 22.7133 29.5766 22.6267 29.7276C22.5402 29.8786 22.4845 30.0453 22.463 30.218C22.4414 30.3907 22.4545 30.5659 22.5013 30.7335C22.6948 31.4616 22.8298 32.0745 22.9394 32.6915C23.0487 33.3079 23.1304 33.9195 23.2181 34.6491C23.2631 34.9918 23.4413 35.3029 23.714 35.5151C23.9867 35.7274 24.3321 35.8236 24.6753 35.7831C25.0184 35.7426 25.3319 35.5685 25.5477 35.2986C25.7635 35.0287 25.8643 34.6846 25.8282 34.3409C25.7343 33.5585 25.6468 32.9025 25.529 32.2394C25.4114 31.5771 25.2609 30.8984 25.0396 30.0656Z" fill="#EDB47C"/>
<path fill-rule="evenodd" clip-rule="evenodd" d="M56.5321 35.2964C56.7229 32.6499 56.4985 30.1559 56.4985 30.1559C56.9872 29.7083 57.844 28.9077 58.7958 28.2175C60.3366 27.1001 62.1267 26.2712 63.0087 27.693C63.8019 28.9719 62.6196 31.8901 62.3995 33.2667C61.7511 37.3216 61.189 40.9428 56.5321 35.2964Z" fill="#F9C795"/>
<path fill-rule="evenodd" clip-rule="evenodd" d="M58.6193 30.0656C58.6611 29.8966 58.736 29.7376 58.8397 29.5979C58.9435 29.4582 59.074 29.3405 59.2236 29.2517C59.3733 29.1629 59.5391 29.1047 59.7115 29.0806C59.8838 29.0564 60.0592 29.0668 60.2275 29.1111C60.3958 29.1554 60.5536 29.2327 60.6918 29.3385C60.8299 29.4444 60.9456 29.5766 61.0322 29.7276C61.1187 29.8786 61.1744 30.0453 61.1959 30.218C61.2175 30.3907 61.2044 30.5659 61.1576 30.7335C60.9641 31.4616 60.8291 32.0745 60.7195 32.6915C60.6101 33.3079 60.5285 33.9195 60.4408 34.6491C60.3958 34.9918 60.2176 35.3029 59.9449 35.5151C59.6722 35.7274 59.3268 35.8236 58.9836 35.7831C58.6404 35.7426 58.327 35.5685 58.1112 35.2986C57.8954 35.0287 57.7946 34.6846 57.8306 34.3409C57.9246 33.5585 58.0121 32.9025 58.1299 32.2394C58.2474 31.5771 58.398 30.8984 58.6193 30.0656Z" fill="#EDB47C"/>
<path fill-rule="evenodd" clip-rule="evenodd" d="M41.8295 67.1864L31.4055 57.8922C32.4663 55.3975 33.0073 50.2542 33.029 42.4622H50.6301C50.6518 50.2542 51.1928 55.3975 52.2536 57.8922L41.8295 67.1864Z" fill="#EDBB8A"/>
<path fill-rule="evenodd" clip-rule="evenodd" d="M41.8295 67.1867L34.9248 61.0305C35.7107 58.2463 36.1129 53.5063 36.1314 46.8105H50.7053C50.8887 52.2016 51.4047 55.8957 52.2537 57.8926L41.8295 67.1867Z" fill="#F9C795"/>
<path fill-rule="evenodd" clip-rule="evenodd" d="M24.8633 28.2172C25.3602 33.7779 26.9178 42.8619 30.6404 46.9744C32.0832 48.5684 36.3133 53.1281 38.4859 53.9822C39.8629 54.5234 40.3693 54.0348 41.8295 54.0191C43.2898 54.035 43.7963 54.5236 45.1732 53.9822C47.3461 53.1279 51.576 48.5684 53.0187 46.9744C56.7414 42.8617 58.299 33.7777 58.7959 28.2172C58.7959 16.0301 50.3074 10.6244 41.8295 10.5557C33.3518 10.6244 24.8633 16.0299 24.8633 28.2172Z" fill="#F2CB9F"/>
<path fill-rule="evenodd" clip-rule="evenodd" d="M33.7095 50.192C35.3761 51.8362 37.2589 53.5 38.4857 53.9825C39.8626 54.5237 40.3691 54.035 41.8292 54.0194C43.2896 54.0352 43.796 54.5239 45.173 53.9825C47.3458 53.1282 51.5757 48.5686 53.0185 46.9747C56.7412 42.862 58.2988 33.778 58.7957 28.2174C58.7957 20.1352 55.0619 15.0366 50.0744 12.4981C48.4732 12.0348 46.8085 11.8008 45.1439 11.7864C36.666 11.8592 28.1775 17.6045 28.1775 30.5575C28.6634 36.3356 30.1634 45.6926 33.7093 50.192H33.7095Z" fill="#FDD7AD"/>
<path fill-rule="evenodd" clip-rule="evenodd" d="M81.4865 85.8655V78.8096C81.4865 67.8807 72.1 65.9653 58.4728 60.3293L52.9833 55.9768L41.8294 65.9215L30.6755 55.9768L25.1863 60.3293C11.5591 65.9653 2.17261 67.8807 2.17261 78.8096V85.8655H81.4865Z" fill="#4F5D99"/>
<path fill-rule="evenodd" clip-rule="evenodd" d="M65.9864 63.3219C65.3696 63.0776 64.7524 62.8343 64.1348 62.592L54.4417 85.8655H56.5971L65.9864 63.3217V63.3219Z" fill="#45518A"/>
<path fill-rule="evenodd" clip-rule="evenodd" d="M29.2176 85.8655L19.5244 62.592L25.1861 60.3295L30.6756 55.9768L41.8295 65.9217L52.9834 55.9768L58.4729 60.3295L64.1348 62.592L54.4414 85.8655H41.8295H29.2176Z" fill="#E7EBF5"/>
<path fill-rule="evenodd" clip-rule="evenodd" d="M41.8297 65.9216L47.1291 71.3654L44.7486 74.9775L46.0543 85.8654H37.6051L38.9107 74.9775L36.5303 71.3654L41.8297 65.9216Z" fill="#6A75AD"/>
<path fill-rule="evenodd" clip-rule="evenodd" d="M41.8295 65.9216L47.129 71.3654L44.7485 74.9775L46.0542 85.8654H39.7788L40.8133 74.9775L38.4329 71.3654L41.8295 65.9216Z" fill="#7986BF"/>
<path fill-rule="evenodd" clip-rule="evenodd" d="M41.8294 65.9216L47.1291 71.3654L44.7486 74.9775H38.9103L36.53 71.3654L41.8294 65.9216Z" fill="#45518A"/>
<path fill-rule="evenodd" clip-rule="evenodd" d="M42.7809 66.8989L47.129 71.3653L44.7485 74.9774H40.8133L38.4329 71.3653L42.7809 66.8989Z" fill="#4F5D99"/>
<path fill-rule="evenodd" clip-rule="evenodd" d="M42.4005 66.5081L33.819 75.3231L25.186 60.3293L33.9521 74.0133L41.8294 65.9215L42.4005 66.5081Z" fill="#D6DBE8"/>
<path fill-rule="evenodd" clip-rule="evenodd" d="M41.8294 65.9217L33.9521 74.0135L25.1863 60.3295L30.6755 55.9768L41.8294 65.9217ZM41.8294 65.9217L49.7072 74.0135L58.4728 60.3295L52.9833 55.9768L41.8294 65.9217Z" fill="white"/>
<path fill-rule="evenodd" clip-rule="evenodd" d="M17.6728 63.3219C18.2765 63.0825 18.8939 62.8397 19.5244 62.592L29.2175 85.8655H27.0619L17.6726 63.3217L17.6728 63.3219Z" fill="#45518A"/>
<path fill-rule="evenodd" clip-rule="evenodd" d="M41.8293 67.0946L49.8399 75.3231L58.4729 60.3293L49.7069 74.0133L41.8295 65.9215L41.8293 67.0946Z" fill="#C7CEE0"/>
<path fill-rule="evenodd" clip-rule="evenodd" d="M24.8398 28.2337C14.9691 3.5607 47.5302 -0.212349 51.904 9.05152C54.9816 8.57164 68.5499 5.29507 58.8019 28.2337C58.7501 26.6162 58.0396 23.6984 56.4452 21.6814C56.4081 22.0679 56.1335 23.2791 54.5757 24.7384C54.087 21.9505 52.6425 19.1173 50.681 18.7267C47.8995 25.7498 31.9564 14.7359 24.8398 28.2337Z" fill="#2C3033"/>
<path fill-rule="evenodd" clip-rule="evenodd" d="M87.5736 70.1626L88.8193 95.5796L81.984 89.8804L75.1484 95.5796L76.3943 70.1626H87.5736Z" fill="#E68207"/>
<path fill-rule="evenodd" clip-rule="evenodd" d="M87.5736 70.1626L88.6959 93.0606L83.4328 88.6724L81.984 89.8804L77.2061 93.8642L78.3678 70.1626H87.5736Z" fill="#FDA02F"/>
<path fill-rule="evenodd" clip-rule="evenodd" d="M85.4246 49.2261C86.3499 50.5292 87.8429 51.1476 89.4187 50.8806C90.8837 50.6322 92.1087 50.8999 93.1869 51.9781C94.2654 53.0564 94.5324 54.2808 94.2843 55.7462C94.0173 57.322 94.6357 58.815 95.9386 59.7404C97.1503 60.6009 97.8271 61.656 97.8271 63.181C97.8271 64.706 97.1501 65.7611 95.9386 66.6216C94.6355 67.5472 94.0171 69.04 94.2841 70.6158C94.5326 72.0808 94.2648 73.3058 93.1867 74.3839C92.1083 75.4625 90.8839 75.7294 89.4185 75.4816C87.8427 75.2146 86.3498 75.833 85.4244 77.1359C84.5638 78.3474 83.5087 79.0244 81.9837 79.0244C80.4587 79.0244 79.4037 78.3474 78.5431 77.1359C77.6175 75.8328 76.1248 75.2144 74.549 75.4814C73.0839 75.7298 71.8589 75.4621 70.7808 74.3839C69.7023 73.3056 69.4353 72.0812 69.6832 70.6158C69.9501 69.04 69.3318 67.5472 68.0289 66.6216C66.8173 65.7611 66.1404 64.706 66.1404 63.181C66.1404 61.656 66.8173 60.6009 68.0289 59.7404C69.332 58.815 69.9503 57.322 69.6833 55.7462C69.4349 54.2812 69.7027 53.0562 70.7808 51.9781C71.8591 50.8996 73.0835 50.6326 74.549 50.8806C76.1248 51.1476 77.6175 50.5292 78.5431 49.2261C79.4037 48.0146 80.4587 47.3376 81.9837 47.3376C83.5087 47.3376 84.5638 48.0146 85.4244 49.2261H85.4246Z" fill="#F9AC00"/>
<path fill-rule="evenodd" clip-rule="evenodd" d="M85.4243 49.2261C86.3499 50.5292 87.8427 51.1476 89.4185 50.8806C90.8835 50.6322 92.1085 50.8999 93.1866 51.9781C94.2651 53.0564 94.5321 54.2808 94.2841 55.7462C94.0171 57.322 94.6355 58.815 95.9386 59.7404C97.1501 60.6009 97.8271 61.656 97.8271 63.181C97.8271 64.706 97.1501 65.7611 95.9386 66.6216C94.6355 67.5472 94.0171 69.04 94.2841 70.616C94.5325 72.0808 94.2647 73.306 93.1866 74.3841C92.1083 75.4626 90.8839 75.7296 89.4185 75.4816C87.8427 75.2146 86.3497 75.833 85.4243 77.1361C84.7421 78.0966 83.9376 78.721 82.8737 78.9386C81.8099 78.721 81.0054 78.0966 80.3231 77.1361C79.3976 75.833 77.9048 75.2146 76.329 75.4816C76.2614 75.4931 76.1942 75.5033 76.1278 75.5126C75.6245 75.4027 75.0917 75.3898 74.5489 75.4816L74.5284 75.4849C73.8155 75.338 73.1651 74.9882 72.5608 74.3841C71.4823 73.3058 71.2151 72.0814 71.4632 70.616C71.7302 69.04 71.1118 67.5472 69.8089 66.6216C68.5974 65.7611 67.9204 64.706 67.9204 63.181C67.9204 61.656 68.5974 60.6009 69.8089 59.7404C71.112 58.8148 71.7304 57.322 71.4634 55.7462C71.2149 54.2812 71.4827 53.0562 72.5608 51.9781C73.1653 51.3736 73.8157 51.0242 74.5286 50.8773L74.5487 50.8806C75.0915 50.9726 75.6243 50.9595 76.1274 50.8496C76.194 50.8587 76.2612 50.8691 76.3288 50.8806C77.9048 51.1476 79.3976 50.5292 80.323 49.2261C81.0052 48.2658 81.8097 47.6414 82.8735 47.4236C83.9374 47.6412 84.7421 48.2656 85.4243 49.2261Z" fill="#FDC72E"/>
<path d="M83.3998 68.3356C86.2467 68.3356 88.5546 66.0277 88.5546 63.1808C88.5546 60.3338 86.2467 58.0259 83.3998 58.0259C80.5528 58.0259 78.2449 60.3338 78.2449 63.1808C78.2449 66.0277 80.5528 68.3356 83.3998 68.3356Z" fill="#F9AC00"/>
<path d="M81.984 68.3356C84.8309 68.3356 87.1389 66.0277 87.1389 63.1808C87.1389 60.3338 84.8309 58.0259 81.984 58.0259C79.137 58.0259 76.8291 60.3338 76.8291 63.1808C76.8291 66.0277 79.137 68.3356 81.984 68.3356Z" fill="white"/>
</svg>
