<svg width="64" height="64" viewBox="0 0 64 64" fill="none" xmlns="http://www.w3.org/2000/svg">
<g clip-path="url(#clip0_388_8080)">
<g clip-path="url(#clip1_388_8080)">
<path d="M63.9498 23.2701C63.2198 20.6001 62.1698 18.0601 60.8298 15.7001C60.4598 15.0501 59.6298 14.8601 58.9698 15.2101C56.1098 16.7501 52.4698 16.3401 50.0498 13.9201C47.6398 11.5001 47.2198 7.86009 48.7698 5.00009C49.1298 4.34009 48.9298 3.51009 48.2798 3.14009C45.9536 1.82337 43.4753 0.795757 40.8998 0.0800936C40.1698 -0.119906 39.4398 0.350094 39.2198 1.07009C38.2698 4.17009 35.3898 6.43009 31.9798 6.43009C28.5698 6.43009 25.6798 4.17009 24.7398 1.07009C24.5198 0.340094 23.7898 -0.129906 23.0598 0.0800936C20.4598 0.810094 17.9798 1.84009 15.6798 3.14009C15.0298 3.51009 14.8398 4.34009 15.1898 5.00009C16.7298 7.86009 16.3198 11.5001 13.8998 13.9201C11.4798 16.3401 7.84982 16.7501 4.97982 15.2101C4.31982 14.8501 3.48982 15.0501 3.11982 15.7001C1.80309 18.0263 0.775483 20.5047 0.0598202 23.0801C-0.14018 23.8101 0.32982 24.5401 1.04982 24.7601C2.60046 25.2347 3.95769 26.1948 4.92162 27.4989C5.88555 28.803 6.40522 30.3821 6.4041 32.0038C6.40298 33.6255 5.88113 35.2039 4.9154 36.5066C3.94967 37.8094 2.59111 38.7676 1.03982 39.2401C0.30982 39.4601 -0.16018 40.1901 0.0498202 40.9201C0.77982 43.5201 1.80982 46.0001 3.10982 48.3001C3.47982 48.9501 4.30982 49.1401 4.96982 48.7901C7.82982 47.2501 11.4698 47.6601 13.8898 50.0801C16.3098 52.5001 16.7198 56.1301 15.1798 59.0001C14.8198 59.6601 15.0198 60.4901 15.6698 60.8601C17.9698 62.1601 20.4498 63.2001 23.0498 63.9201C23.7798 64.1201 24.5098 63.6501 24.7298 62.9301C25.6798 59.8301 28.5598 57.5701 31.9698 57.5701C35.3798 57.5701 38.2698 59.8301 39.2098 62.9301C39.4298 63.6601 40.1598 64.1301 40.8898 63.9201C43.4898 63.1901 45.9698 62.1601 48.2698 60.8601C48.9198 60.4901 49.1098 59.6601 48.7598 59.0001C47.2198 56.1401 47.6298 52.5001 50.0498 50.0801C52.4698 47.6601 56.0998 47.2501 58.9698 48.7901C59.6298 49.1501 60.4598 48.9501 60.8298 48.3001C62.1698 45.9401 63.2198 43.4001 63.9498 40.7301C64.1398 40.0401 63.7298 39.3501 63.0698 39.1001C61.6214 38.5616 60.3726 37.5926 59.4913 36.3233C58.61 35.054 58.1383 33.5453 58.1398 32.0001C58.1398 28.7501 60.1898 25.9801 63.0698 24.9001C63.7398 24.6501 64.1398 23.9601 63.9498 23.2701Z" fill="#FDC72E"/>
<path d="M32 54.96C44.6805 54.96 54.96 44.6805 54.96 32C54.96 19.3196 44.6805 9.04004 32 9.04004C19.3196 9.04004 9.04004 19.3196 9.04004 32C9.04004 44.6805 19.3196 54.96 32 54.96Z" fill="#0078FF"/>
<path d="M32 51.53C42.7861 51.53 51.53 42.7861 51.53 32C51.53 21.2139 42.7861 12.47 32 12.47C21.2139 12.47 12.47 21.2139 12.47 32C12.47 42.7861 21.2139 51.53 32 51.53Z" fill="#F0F0F0"/>
<path d="M32.97 32H31.04V20.48C31.04 20.2227 31.1422 19.976 31.3241 19.7941C31.5061 19.6122 31.7528 19.51 32.01 19.51C32.2673 19.51 32.514 19.6122 32.6959 19.7941C32.8778 19.976 32.98 20.2227 32.98 20.48V32H32.97Z" fill="#364F6B"/>
<path d="M39.8701 39.8701C39.4901 40.2501 38.8801 40.2501 38.5001 39.8701L31.3101 32.6801L32.6801 31.3101L39.8701 38.5001C40.2501 38.8801 40.2501 39.4901 39.8701 39.8701Z" fill="#364F6B"/>
<path d="M22.7299 41.2701C22.6729 41.2139 22.6277 41.1469 22.5968 41.0731C22.5659 40.9993 22.55 40.9201 22.55 40.8401C22.55 40.7601 22.5659 40.6808 22.5968 40.607C22.6277 40.5332 22.6729 40.4663 22.7299 40.4101L31.5799 31.5701L32.4399 32.4301L23.5899 41.2801C23.3499 41.5101 22.9599 41.5101 22.7299 41.2701Z" fill="#FC5185"/>
<path d="M32.0001 34.1501C33.1875 34.1501 34.1501 33.1875 34.1501 32.0001C34.1501 30.8127 33.1875 29.8501 32.0001 29.8501C30.8127 29.8501 29.8501 30.8127 29.8501 32.0001C29.8501 33.1875 30.8127 34.1501 32.0001 34.1501Z" fill="#43DDE6"/>
<path d="M32 49.8C31.61 49.8 31.29 49.48 31.29 49.09V47.68C31.29 47.29 31.61 46.97 32 46.97C32.39 46.97 32.71 47.29 32.71 47.68V49.09C32.71 49.48 32.39 49.8 32 49.8ZM32 17.04C31.61 17.04 31.29 16.72 31.29 16.33V14.92C31.29 14.53 31.61 14.21 32 14.21C32.39 14.21 32.71 14.53 32.71 14.92V16.33C32.71 16.72 32.39 17.04 32 17.04ZM49.8 32C49.8 32.39 49.48 32.71 49.09 32.71H47.68C47.29 32.71 46.97 32.39 46.97 32C46.97 31.61 47.29 31.29 47.68 31.29H49.09C49.48 31.29 49.8 31.61 49.8 32ZM17.04 32C17.04 32.39 16.72 32.71 16.33 32.71H14.92C14.53 32.71 14.21 32.39 14.21 32C14.21 31.61 14.53 31.29 14.92 31.29H16.33C16.72 31.29 17.04 31.61 17.04 32ZM19.42 44.58C19.3534 44.5148 19.3006 44.437 19.2645 44.3511C19.2284 44.2653 19.2099 44.1731 19.2099 44.08C19.2099 43.9868 19.2284 43.8946 19.2645 43.8088C19.3006 43.7229 19.3534 43.6451 19.42 43.58L20.42 42.58C20.4851 42.5134 20.5629 42.4606 20.6488 42.4245C20.7346 42.3884 20.8268 42.3699 20.92 42.3699C21.0131 42.3699 21.1053 42.3884 21.1911 42.4245C21.277 42.4606 21.3548 42.5134 21.42 42.58C21.4865 42.6451 21.5393 42.7229 21.5754 42.8088C21.6115 42.8946 21.6301 42.9868 21.6301 43.08C21.6301 43.1731 21.6115 43.2653 21.5754 43.3511C21.5393 43.437 21.4865 43.5148 21.42 43.58L20.42 44.58C20.3548 44.6465 20.277 44.6993 20.1911 44.7354C20.1053 44.7715 20.0131 44.7901 19.92 44.7901C19.8268 44.7901 19.7346 44.7715 19.6488 44.7354C19.5629 44.6993 19.4851 44.6465 19.42 44.58ZM42.58 21.42C42.5134 21.3548 42.4606 21.277 42.4245 21.1911C42.3884 21.1053 42.3699 21.0131 42.3699 20.92C42.3699 20.8268 42.3884 20.7346 42.4245 20.6488C42.4606 20.5629 42.5134 20.4851 42.58 20.42L43.58 19.42C43.6451 19.3534 43.7229 19.3006 43.8088 19.2645C43.8946 19.2284 43.9868 19.2099 44.08 19.2099C44.1731 19.2099 44.2653 19.2284 44.3511 19.2645C44.437 19.3006 44.5148 19.3534 44.58 19.42C44.6465 19.4851 44.6993 19.5629 44.7354 19.6488C44.7715 19.7346 44.7901 19.8268 44.7901 19.92C44.7901 20.0131 44.7715 20.1053 44.7354 20.1911C44.6993 20.277 44.6465 20.3548 44.58 20.42L43.58 21.42C43.5148 21.4865 43.437 21.5393 43.3511 21.5754C43.2653 21.6115 43.1731 21.6301 43.08 21.6301C42.9868 21.6301 42.8946 21.6115 42.8088 21.5754C42.7229 21.5393 42.6451 21.4865 42.58 21.42ZM44.58 44.58C44.5148 44.6465 44.437 44.6993 44.3511 44.7354C44.2653 44.7715 44.1731 44.7901 44.08 44.7901C43.9868 44.7901 43.8946 44.7715 43.8088 44.7354C43.7229 44.6993 43.6451 44.6465 43.58 44.58L42.58 43.58C42.5134 43.5148 42.4606 43.437 42.4245 43.3511C42.3884 43.2653 42.3699 43.1731 42.3699 43.08C42.3699 42.9868 42.3884 42.8946 42.4245 42.8088C42.4606 42.7229 42.5134 42.6451 42.58 42.58C42.6451 42.5134 42.7229 42.4606 42.8088 42.4245C42.8946 42.3884 42.9868 42.3699 43.08 42.3699C43.1731 42.3699 43.2653 42.3884 43.3511 42.4245C43.437 42.4606 43.5148 42.5134 43.58 42.58L44.58 43.58C44.6465 43.6451 44.6993 43.7229 44.7354 43.8088C44.7715 43.8946 44.7901 43.9868 44.7901 44.08C44.7901 44.1731 44.7715 44.2653 44.7354 44.3511C44.6993 44.437 44.6465 44.5148 44.58 44.58ZM21.42 21.42C21.3548 21.4865 21.277 21.5393 21.1911 21.5754C21.1053 21.6115 21.0131 21.6301 20.92 21.6301C20.8268 21.6301 20.7346 21.6115 20.6488 21.5754C20.5629 21.5393 20.4851 21.4865 20.42 21.42L19.42 20.42C19.3534 20.3548 19.3006 20.277 19.2645 20.1911C19.2284 20.1053 19.2099 20.0131 19.2099 19.92C19.2099 19.8268 19.2284 19.7346 19.2645 19.6488C19.3006 19.5629 19.3534 19.4851 19.42 19.42C19.4851 19.3534 19.5629 19.3006 19.6488 19.2645C19.7346 19.2284 19.8268 19.2099 19.92 19.2099C20.0131 19.2099 20.1053 19.2284 20.1911 19.2645C20.277 19.3006 20.3548 19.3534 20.42 19.42L21.42 20.42C21.4865 20.4851 21.5393 20.5629 21.5754 20.6488C21.6115 20.7346 21.6301 20.8268 21.6301 20.92C21.6301 21.0131 21.6115 21.1053 21.5754 21.1911C21.5393 21.277 21.4865 21.3548 21.42 21.42Z" fill="#B3B3B3"/>
</g>
</g>
<defs>
<clipPath id="clip0_388_8080">
<rect width="64" height="64" fill="white"/>
</clipPath>
<clipPath id="clip1_388_8080">
<rect width="64" height="64" fill="white"/>
</clipPath>
</defs>
</svg>
