<?xml version="1.0" encoding="UTF-8"?>
<svg id="Layer_2" data-name="Layer 2" xmlns="http://www.w3.org/2000/svg" viewBox="0 0 497.72 183.31">
  <defs>
    <style>
      .cls-1, .cls-2 {
        isolation: isolate;
      }

      .cls-3 {
        stroke-width: 0px;
      }

      .cls-3, .cls-2 {
        fill: #fff;
      }

      .cls-2 {
        font-family: Arial-BoldItalicMT, Arial;
        font-size: 19.5px;
        font-style: italic;
        font-weight: 700;
      }
    </style>
  </defs>
  <g id="Layer_2-2" data-name="Layer 2">
    <g id="Layer_1-2" data-name="Layer 1-2">
      <g id="whole_logo" data-name="whole logo">
        <g>
          <path class="cls-3" d="m108.88,54.02c-.25,1.97-.46,3.96-.65,5.96-.01,0-.04.02-.05.03-18.73,11.59-33.79,28.54-43.03,48.72h0c-1.87,4.09-3.5,8.31-4.88,12.64-3.26,10.26-5.08,21.16-5.22,32.47-.15-11.23-1.94-22.06-5.16-32.26-.07-.23-.15-.46-.22-.7-.64-1.97-1.33-3.93-2.07-5.85-.82-2.14-1.71-4.25-2.66-6.32-1.2-2.62-2.5-5.18-3.88-7.68-9.29-16.73-22.74-30.83-38.95-40.9,0,0,0,0-.02,0-.22-2.47-.49-4.93-.82-7.38.28.14.57.27.84.41,15.24,7.43,28.55,18.22,38.95,31.41,2.34,2.95,4.52,6.03,6.54,9.21.79,1.24,1.55,2.49,2.29,3.77.04.05.07.11.09.17,1.84,3.16,3.52,6.41,5.04,9.75,1.57-3.29,3.29-6.49,5.16-9.59,11.33-18.82,28.03-34.03,47.99-43.51.23-.11.46-.22.7-.33h.01Z"/>
          <path class="cls-3" d="m110.34,44.25v.02c-.57,3.23-1.06,6.48-1.46,9.75-.23.11-.46.22-.7.33-19.96,9.48-36.67,24.69-47.99,43.51-1.87,3.1-3.59,6.3-5.16,9.59-1.52-3.34-3.21-6.6-5.04-9.75-.03-.06-.06-.12-.09-.17-.74-1.28-1.5-2.52-2.29-3.77-2.02-3.19-4.21-6.26-6.54-9.21-10.4-13.19-23.7-23.98-38.95-31.41-.28-.14-.56-.27-.84-.41-.36-2.84-.79-5.66-1.28-8.46.71.28,1.42.55,2.13.84,14.79,5.98,28.03,14.99,38.95,26.26,2.29,2.36,4.47,4.82,6.54,7.36.78.96,1.55,1.92,2.29,2.9,1.81,2.39,3.53,4.84,5.16,7.36,12.65-19.63,31.19-35.11,53.13-43.92.72-.29,1.44-.57,2.15-.84v.02Z"/>
          <path class="cls-3" d="m47.61,6.05v11.22c-2.86,1.99-5.14,4.76-6.54,8V0h.1c3.43,0,6.23,2.68,6.44,6.05Z"/>
          <path class="cls-3" d="m78.72,36.81c-1.2,9.28-9.13,16.45-18.75,16.45-3.71,0-7.16-1.07-10.08-2.91v-8.88c2.23,3.14,5.91,5.19,10.06,5.19,5.96,0,10.95-4.23,12.1-9.85h6.67Z"/>
          <path class="cls-3" d="m78.89,34.35v.19h-6.57v-.24c0-6.83-5.54-12.36-12.36-12.36-4.15,0-7.83,2.05-10.06,5.19-1.39,1.94-2.23,4.3-2.29,6.85v23.77c0,3.57-2.89,6.46-6.46,6.46h-.09v-29.67h0v-.19c0-5.72,2.53-10.84,6.54-14.3.72-.63,1.48-1.2,2.29-1.71,2.92-1.84,6.37-2.91,10.08-2.91,4.88,0,9.32,1.84,12.67,4.88,3.83,3.46,6.24,8.47,6.24,14.04h.01Z"/>
        </g>
        <g>
          <g>
            <path class="cls-3" d="m94.45,119.53v-33.02h10.7c4.05,0,6.7.17,7.93.5,1.89.5,3.48,1.57,4.75,3.23,1.28,1.66,1.91,3.8,1.91,6.43,0,2.03-.37,3.73-1.1,5.11-.74,1.38-1.67,2.47-2.8,3.25-1.13.79-2.29,1.31-3.46,1.57-1.59.32-3.9.47-6.91.47h-4.35v12.46h-6.67Zm6.67-27.43v9.37h3.65c2.63,0,4.38-.17,5.27-.52s1.58-.89,2.08-1.62c.5-.74.75-1.59.75-2.57,0-1.2-.35-2.19-1.06-2.97s-1.6-1.27-2.68-1.46c-.8-.15-2.4-.23-4.8-.23h-3.22.01Z"/>
            <path class="cls-3" d="m123.71,107.23c0-2.1.52-4.14,1.55-6.1,1.04-1.97,2.5-3.47,4.4-4.5,1.9-1.04,4.02-1.55,6.36-1.55,3.62,0,6.58,1.18,8.9,3.53,2.31,2.35,3.47,5.32,3.47,8.91s-1.17,6.62-3.5,9c-2.34,2.38-5.27,3.57-8.82,3.57-2.19,0-4.28-.5-6.27-1.49-1.99-.99-3.5-2.44-4.54-4.36-1.04-1.91-1.55-4.25-1.55-6.99v-.02Zm6.49.34c0,2.37.56,4.19,1.69,5.45s2.51,1.89,4.17,1.89,3.04-.63,4.16-1.89c1.12-1.26,1.68-3.09,1.68-5.5s-.56-4.14-1.68-5.41c-1.12-1.26-2.5-1.89-4.16-1.89s-3.04.63-4.17,1.89-1.69,3.08-1.69,5.45h0Z"/>
            <path class="cls-3" d="m153.35,119.53v-33.02h6.33v33.02h-6.33Z"/>
            <path class="cls-3" d="m166.17,92.36v-5.86h6.33v5.86h-6.33Zm0,27.16v-23.92h6.33v23.92h-6.33Z"/>
            <path class="cls-3" d="m199.84,102.68l-6.24,1.13c-.21-1.25-.69-2.18-1.43-2.82-.74-.63-1.71-.95-2.89-.95-1.58,0-2.83.54-3.77,1.63s-1.41,2.91-1.41,5.46c0,2.84.48,4.84,1.43,6.01s2.23,1.76,3.84,1.76c1.2,0,2.18-.34,2.95-1.02s1.31-1.86,1.62-3.53l6.22,1.06c-.65,2.85-1.88,5.01-3.72,6.46-1.83,1.46-4.29,2.18-7.37,2.18-3.5,0-6.29-1.1-8.37-3.31s-3.12-5.26-3.12-9.17,1.04-7.02,3.13-9.22c2.09-2.2,4.91-3.3,8.47-3.3,2.91,0,5.23.63,6.95,1.88s2.95,3.16,3.71,5.73v.02Z"/>
            <path class="cls-3" d="m201.64,95.61h6.73l5.72,16.98,5.59-16.98h6.55l-8.45,23.02-1.51,4.17c-.56,1.4-1.09,2.46-1.59,3.2s-1.08,1.33-1.73,1.79-1.46.81-2.41,1.07-2.03.38-3.23.38-2.41-.13-3.58-.38l-.56-4.96c.99.19,1.88.29,2.68.29,1.47,0,2.56-.43,3.27-1.3.71-.86,1.25-1.96,1.62-3.3l-9.1-23.99h0Z"/>
            <path class="cls-3" d="m230.02,119.53v-33.02h6.33v11.89c1.95-2.22,4.26-3.33,6.94-3.33,2.91,0,5.32,1.06,7.23,3.16,1.91,2.11,2.86,5.14,2.86,9.09s-.97,7.23-2.92,9.44c-1.94,2.21-4.31,3.31-7.08,3.31-1.37,0-2.71-.34-4.04-1.02-1.33-.68-2.47-1.69-3.43-3.03v3.51h-5.89Zm6.28-12.48c0,2.48.39,4.31,1.17,5.5,1.1,1.68,2.55,2.52,4.37,2.52,1.4,0,2.59-.6,3.57-1.79.98-1.19,1.48-3.07,1.48-5.64,0-2.73-.5-4.7-1.49-5.91-.99-1.21-2.26-1.81-3.81-1.81s-2.78.59-3.78,1.77c-1.01,1.18-1.51,2.97-1.51,5.37h0Z"/>
            <path class="cls-3" d="m263.2,102.91l-5.74-1.04c.65-2.31,1.76-4.02,3.33-5.14,1.58-1.11,3.92-1.67,7.03-1.67,2.82,0,4.92.33,6.31,1,1.38.67,2.35,1.52,2.92,2.55.56,1.03.84,2.92.84,5.66l-.07,7.39c0,2.1.1,3.65.3,4.65.2,1,.58,2.07,1.14,3.21h-6.26c-.17-.42-.37-1.04-.61-1.87-.11-.38-.18-.62-.23-.74-1.08,1.05-2.24,1.84-3.47,2.37-1.23.53-2.55.79-3.94.79-2.46,0-4.4-.67-5.82-2-1.42-1.34-2.13-3.03-2.13-5.07,0-1.35.32-2.56.97-3.62.65-1.06,1.55-1.87,2.71-2.43s2.84-1.05,5.03-1.48c2.96-.56,5.01-1.07,6.15-1.55v-.63c0-1.22-.3-2.08-.9-2.6s-1.73-.78-3.4-.78c-1.13,0-2,.22-2.64.66-.63.44-1.14,1.22-1.53,2.33h.01Zm8.47,5.14c-.81.27-2.09.59-3.85.97-1.76.38-2.91.74-3.45,1.1-.83.59-1.24,1.33-1.24,2.23s.33,1.65.99,2.3,1.5.97,2.52.97c1.14,0,2.23-.38,3.27-1.13.77-.57,1.27-1.27,1.51-2.09.16-.54.25-1.57.25-3.09v-1.26h0Z"/>
            <path class="cls-3" d="m281.58,119.53v-4.93l8.96-10.29c1.47-1.68,2.56-2.88,3.27-3.58-.74.05-1.7.08-2.91.09l-8.45.05v-5.25h19.78v4.48l-9.14,10.54-3.22,3.49c1.76-.1,2.85-.16,3.27-.16h9.8v5.56h-21.36Z"/>
            <path class="cls-3" d="m311.92,102.91l-5.74-1.04c.65-2.31,1.76-4.02,3.33-5.14,1.58-1.11,3.92-1.67,7.03-1.67,2.82,0,4.92.33,6.31,1,1.38.67,2.35,1.52,2.92,2.55.56,1.03.84,2.92.84,5.66l-.07,7.39c0,2.1.1,3.65.3,4.65.2,1,.58,2.07,1.14,3.21h-6.26c-.17-.42-.37-1.04-.61-1.87-.11-.38-.18-.62-.23-.74-1.08,1.05-2.24,1.84-3.47,2.37-1.23.53-2.55.79-3.94.79-2.46,0-4.4-.67-5.82-2-1.42-1.34-2.13-3.03-2.13-5.07,0-1.35.32-2.56.97-3.62.65-1.06,1.55-1.87,2.71-2.43s2.84-1.05,5.03-1.48c2.96-.56,5.01-1.07,6.15-1.55v-.63c0-1.22-.3-2.08-.9-2.6s-1.73-.78-3.4-.78c-1.13,0-2,.22-2.64.66-.63.44-1.14,1.22-1.53,2.33h.01Zm8.47,5.14c-.81.27-2.09.59-3.85.97-1.76.38-2.91.74-3.45,1.1-.83.59-1.24,1.33-1.24,2.23s.33,1.65.99,2.3,1.5.97,2.52.97c1.14,0,2.23-.38,3.27-1.13.77-.57,1.27-1.27,1.51-2.09.16-.54.25-1.57.25-3.09v-1.26h0Z"/>
            <path class="cls-3" d="m337.58,102.91l-5.74-1.04c.65-2.31,1.76-4.02,3.33-5.14,1.58-1.11,3.92-1.67,7.03-1.67,2.82,0,4.92.33,6.31,1,1.38.67,2.35,1.52,2.92,2.55.56,1.03.84,2.92.84,5.66l-.07,7.39c0,2.1.1,3.65.3,4.65.2,1,.58,2.07,1.14,3.21h-6.26c-.17-.42-.37-1.04-.61-1.87-.11-.38-.18-.62-.23-.74-1.08,1.05-2.24,1.84-3.47,2.37-1.23.53-2.55.79-3.94.79-2.46,0-4.4-.67-5.82-2-1.42-1.34-2.13-3.03-2.13-5.07,0-1.35.32-2.56.97-3.62.65-1.06,1.55-1.87,2.71-2.43s2.84-1.05,5.03-1.48c2.96-.56,5.01-1.07,6.15-1.55v-.63c0-1.22-.3-2.08-.9-2.6s-1.73-.78-3.4-.78c-1.13,0-2,.22-2.64.66-.63.44-1.14,1.22-1.53,2.33h.01Zm8.47,5.14c-.81.27-2.09.59-3.85.97-1.76.38-2.91.74-3.45,1.1-.83.59-1.24,1.33-1.24,2.23s.33,1.65.99,2.3,1.5.97,2.52.97c1.14,0,2.23-.38,3.27-1.13.77-.57,1.27-1.27,1.51-2.09.16-.54.25-1.57.25-3.09v-1.26h0Z"/>
            <path class="cls-3" d="m364.56,119.53h-6.33v-23.92h5.88v3.4c1.01-1.61,1.91-2.67,2.71-3.18s1.72-.77,2.74-.77c1.44,0,2.83.4,4.17,1.19l-1.96,5.52c-1.07-.69-2.06-1.04-2.97-1.04s-1.64.24-2.25.73c-.62.49-1.1,1.37-1.45,2.65s-.53,3.95-.53,8.02v7.39h-.01Z"/>
            <path class="cls-3" d="m376.56,119.53v-33.02h6.49l13.51,22.05v-22.05h6.19v33.02h-6.69l-13.31-21.53v21.53h-6.19Z"/>
            <path class="cls-3" d="m423.62,111.92l6.31,1.06c-.81,2.31-2.09,4.07-3.84,5.28s-3.94,1.81-6.57,1.81c-4.16,0-7.24-1.36-9.23-4.08-1.58-2.18-2.37-4.92-2.37-8.24,0-3.96,1.04-7.07,3.11-9.31,2.07-2.24,4.69-3.37,7.86-3.37,3.56,0,6.37,1.18,8.42,3.53,2.06,2.35,3.04,5.95,2.95,10.8h-15.86c.05,1.88.56,3.34,1.53,4.38.98,1.04,2.19,1.57,3.65,1.57.99,0,1.82-.27,2.5-.81s1.19-1.41,1.53-2.61h.01Zm.36-6.4c-.05-1.83-.52-3.22-1.42-4.18-.9-.95-2-1.43-3.29-1.43-1.38,0-2.52.5-3.42,1.51-.9,1.01-1.34,2.37-1.33,4.1h9.46Z"/>
            <path class="cls-3" d="m435.24,95.61h5.9v3.51c.77-1.2,1.8-2.18,3.11-2.93s2.76-1.13,4.35-1.13c2.78,0,5.14,1.09,7.07,3.27,1.94,2.18,2.91,5.21,2.91,9.1s-.98,7.1-2.93,9.31c-1.95,2.22-4.32,3.32-7.1,3.32-1.32,0-2.52-.26-3.59-.79s-2.2-1.43-3.39-2.7v12.05h-6.33v-33.02h0Zm6.26,11.55c0,2.69.53,4.67,1.6,5.96,1.07,1.28,2.37,1.93,3.9,1.93s2.69-.59,3.67-1.77,1.46-3.11,1.46-5.8c0-2.51-.5-4.37-1.51-5.59s-2.25-1.82-3.74-1.82-2.83.6-3.85,1.79c-1.02,1.19-1.53,2.96-1.53,5.3Z"/>
            <path class="cls-3" d="m468.33,102.91l-5.74-1.04c.65-2.31,1.76-4.02,3.33-5.14,1.58-1.11,3.92-1.67,7.03-1.67,2.82,0,4.92.33,6.31,1,1.38.67,2.35,1.52,2.92,2.55.56,1.03.84,2.92.84,5.66l-.07,7.39c0,2.1.1,3.65.3,4.65.2,1,.58,2.07,1.14,3.21h-6.26c-.17-.42-.37-1.04-.61-1.87-.11-.38-.18-.62-.23-.74-1.08,1.05-2.24,1.84-3.47,2.37-1.23.53-2.55.79-3.94.79-2.46,0-4.4-.67-5.82-2-1.42-1.34-2.13-3.03-2.13-5.07,0-1.35.32-2.56.97-3.62.65-1.06,1.55-1.87,2.71-2.43s2.84-1.05,5.03-1.48c2.96-.56,5.01-1.07,6.15-1.55v-.63c0-1.22-.3-2.08-.9-2.6s-1.73-.78-3.4-.78c-1.13,0-2,.22-2.64.66-.63.44-1.14,1.22-1.53,2.33h.01Zm8.47,5.14c-.81.27-2.09.59-3.85.97-1.76.38-2.91.74-3.45,1.1-.83.59-1.24,1.33-1.24,2.23s.33,1.65.99,2.3,1.5.97,2.52.97c1.14,0,2.23-.38,3.27-1.13.77-.57,1.27-1.27,1.51-2.09.16-.54.25-1.57.25-3.09v-1.26h0Z"/>
            <path class="cls-3" d="m489.25,119.53v-33.02h6.33v33.02h-6.33Z"/>
          </g>
          <g>
            <path class="cls-3" d="m455.64,137.9l2.49.32c-.27,1.72-.97,3.06-2.09,4.03s-2.5,1.46-4.13,1.46c-2.05,0-3.69-.67-4.93-2.01s-1.87-3.25-1.87-5.75c0-1.61.27-3.03.8-4.24s1.35-2.12,2.44-2.72,2.28-.91,3.57-.91c1.62,0,2.95.41,3.98,1.23,1.03.82,1.69,1.99,1.98,3.5l-2.46.38c-.23-1-.65-1.76-1.25-2.27-.6-.51-1.32-.76-2.16-.76-1.28,0-2.31.46-3.11,1.37-.8.91-1.2,2.36-1.2,4.34s.38,3.47,1.15,4.38,1.77,1.37,3.01,1.37c.99,0,1.83-.3,2.49-.92.67-.61,1.09-1.55,1.27-2.82l.02.02Z"/>
            <path class="cls-3" d="m459.36,135.91c0-2.77.77-4.82,2.31-6.15,1.29-1.11,2.85-1.66,4.7-1.66,2.06,0,3.74.67,5.04,2.02,1.3,1.35,1.96,3.21,1.96,5.58,0,1.92-.29,3.44-.87,4.54-.58,1.1-1.42,1.96-2.52,2.57-1.1.61-2.31.92-3.61.92-2.09,0-3.78-.67-5.07-2.01s-1.94-3.27-1.94-5.8h0Zm2.6,0c0,1.91.42,3.35,1.25,4.3.84.95,1.89,1.43,3.15,1.43s2.3-.48,3.14-1.44,1.25-2.42,1.25-4.38c0-1.85-.42-3.25-1.26-4.2s-1.88-1.43-3.13-1.43-2.32.47-3.15,1.42c-.84.95-1.25,2.38-1.25,4.29h0Z"/>
            <path class="cls-3" d="m476.33,143.38v-14.95h2.27v2.1c.47-.73,1.09-1.32,1.87-1.77s1.67-.67,2.66-.67c1.11,0,2.02.23,2.72.69.71.46,1.21,1.1,1.5,1.93,1.18-1.75,2.72-2.62,4.62-2.62,1.48,0,2.62.41,3.42,1.23.8.82,1.2,2.09,1.2,3.79v10.26h-2.52v-9.42c0-1.01-.08-1.74-.25-2.19-.16-.45-.46-.8-.89-1.08-.43-.27-.94-.41-1.52-.41-1.05,0-1.92.35-2.62,1.05-.69.7-1.04,1.82-1.04,3.36v8.69h-2.53v-9.71c0-1.13-.21-1.97-.62-2.53s-1.09-.84-2.03-.84c-.71,0-1.37.19-1.98.56-.61.38-1.04.92-1.32,1.65-.27.72-.41,1.76-.41,3.13v7.76h-2.53Z"/>
          </g>
          <circle class="cls-3" cx="435.4" cy="136.4" r="4.2"/>
          <rect class="cls-3" x="93.31" y="136.05" width="334.15" height="2.02"/>
        </g>
      </g>
      <g class="cls-1">
        <text class="cls-2" transform="translate(306.85 175.97)"><tspan x="0" y="0">Get Insured Digitally</tspan></text>
      </g>
    </g>
  </g>
</svg>