<svg width="64" height="64" viewBox="0 0 64 64" fill="none" xmlns="http://www.w3.org/2000/svg">
<path d="M4.53418 0.674881V39.9319H46.8224V0.674881C46.8224 0.504115 46.7546 0.340342 46.6338 0.219592C46.5131 0.0988425 46.3493 0.0310059 46.1786 0.0310059H5.17818C5.0074 0.0310059 4.84362 0.0988385 4.72285 0.219585C4.60208 0.340331 4.53421 0.504103 4.53418 0.674881Z" fill="#DFF6FD"/>
<path d="M46.1783 0.0310059H43.3455C43.5162 0.031039 43.68 0.0989034 43.8008 0.219673C43.9215 0.340443 43.9893 0.504228 43.9893 0.675006V39.9319H46.8223V0.674881C46.8223 0.504103 46.7544 0.340331 46.6337 0.219585C46.5129 0.0988385 46.3491 0.0310059 46.1783 0.0310059Z" fill="#C8EFFE"/>
<path d="M22.7761 34.066L18.3762 29.475C18.3161 29.4123 18.244 29.3624 18.1641 29.3283C18.0842 29.2942 17.9982 29.2766 17.9114 29.2766H1.14388C1.05932 29.2766 0.975581 29.2932 0.897455 29.3256C0.819329 29.3579 0.748343 29.4054 0.68855 29.4652C0.628757 29.525 0.581331 29.5959 0.548979 29.6741C0.516627 29.7522 0.499984 29.8359 0.5 29.9205V63.3252C0.499984 63.4098 0.516627 63.4935 0.548979 63.5717C0.581331 63.6498 0.628757 63.7208 0.68855 63.7806C0.748343 63.8403 0.819329 63.8878 0.897455 63.9201C0.975581 63.9525 1.05932 63.9691 1.14388 63.9691H50.2125C50.2971 63.9691 50.3808 63.9525 50.4589 63.9201C50.537 63.8878 50.608 63.8403 50.6678 63.7806C50.7276 63.7208 50.775 63.6498 50.8074 63.5717C50.8397 63.4935 50.8564 63.4098 50.8564 63.3252V34.9087C50.8564 34.8242 50.8397 34.7404 50.8074 34.6623C50.775 34.5842 50.7276 34.5132 50.6678 34.4534C50.608 34.3936 50.537 34.3462 50.4589 34.3138C50.3808 34.2815 50.2971 34.2648 50.2125 34.2649H23.241C23.1541 34.2648 23.0681 34.2471 22.9882 34.2129C22.9084 34.1787 22.8362 34.1288 22.7761 34.066Z" fill="#FFE177"/>
<path d="M50.2125 34.2646H47.3794C47.4639 34.2646 47.5476 34.2813 47.6258 34.3136C47.7039 34.3459 47.7748 34.3933 47.8346 34.4531C47.8944 34.5129 47.9419 34.5838 47.9742 34.6619C48.0066 34.74 48.0233 34.8237 48.0233 34.9083V63.3249C48.0233 63.4957 47.9554 63.6595 47.8347 63.7802C47.7139 63.901 47.5502 63.9689 47.3794 63.9689H50.2125C50.2971 63.9689 50.3808 63.9523 50.4589 63.9199C50.5371 63.8876 50.6081 63.8401 50.6678 63.7803C50.7276 63.7206 50.7751 63.6496 50.8074 63.5714C50.8398 63.4933 50.8564 63.4096 50.8564 63.325V34.9085C50.8564 34.824 50.8398 34.7402 50.8074 34.6621C50.7751 34.584 50.7276 34.513 50.6678 34.4532C50.6081 34.3934 50.5371 34.346 50.4589 34.3136C50.3808 34.2813 50.2971 34.2646 50.2125 34.2646Z" fill="#FEC165"/>
<path d="M14.1066 55.6631C14.0785 55.6697 14.0491 55.6697 14.021 55.6631C12.2414 55.24 10.6275 54.2305 9.45814 52.8045C8.22864 51.3054 7.55151 49.4097 7.55151 47.4667V43.8202C7.55151 43.7187 7.63426 43.6362 7.73564 43.6379C9.99289 43.6741 12.0928 43.0797 13.9639 41.8625C13.9936 41.8431 14.0283 41.8328 14.0638 41.8328C14.0993 41.8328 14.134 41.8431 14.1638 41.8625C16.0338 43.079 18.1336 43.6741 20.392 43.6379C20.4161 43.6376 20.4401 43.6421 20.4624 43.6511C20.4848 43.6602 20.5051 43.6736 20.5222 43.6905C20.5393 43.7075 20.5529 43.7277 20.5622 43.75C20.5715 43.7722 20.5762 43.7961 20.5761 43.8202V47.4667C20.5761 49.4096 19.899 51.3054 18.6695 52.8045C17.5003 54.2304 15.8863 55.2399 14.1066 55.6631Z" fill="#5DE1C4"/>
<path d="M20.392 43.638C19.5726 43.6512 18.7744 43.5801 18 43.4275C18.0001 43.4297 18.0006 43.4319 18.0006 43.4341V47.467C18.0006 49.4099 17.3235 51.3055 16.094 52.8047C15.2073 53.8842 14.0674 54.7278 12.7759 55.2602C13.1797 55.427 13.596 55.5618 14.0209 55.6634C14.049 55.67 14.0784 55.67 14.1065 55.6634C15.8861 55.2401 17.5001 54.2306 18.6694 52.8047C19.8989 51.3056 20.576 49.4099 20.576 47.467V43.8205C20.5761 43.7964 20.5714 43.7725 20.5622 43.7502C20.5529 43.7279 20.5394 43.7077 20.5222 43.6907C20.5051 43.6737 20.4848 43.6603 20.4624 43.6512C20.4401 43.6422 20.4161 43.6377 20.392 43.638Z" fill="#0ED2B3"/>
<path d="M37.3375 4.53076H14.0189C13.9343 4.53075 13.8506 4.54739 13.7725 4.57974C13.6943 4.61209 13.6233 4.65952 13.5636 4.71931C13.5038 4.7791 13.4563 4.85009 13.424 4.92822C13.3916 5.00634 13.375 5.09008 13.375 5.17464V8.08239C13.375 8.16695 13.3916 8.25068 13.424 8.32881C13.4563 8.40693 13.5038 8.47792 13.5636 8.53771C13.6233 8.5975 13.6943 8.64493 13.7725 8.67728C13.8506 8.70964 13.9343 8.72628 14.0189 8.72626H37.3375C37.4221 8.72628 37.5058 8.70964 37.5839 8.67728C37.662 8.64493 37.733 8.5975 37.7928 8.53771C37.8526 8.47792 37.9 8.40693 37.9324 8.32881C37.9647 8.25068 37.9814 8.16695 37.9814 8.08239V5.17464C37.9814 5.09008 37.9647 5.00634 37.9324 4.92822C37.9 4.85009 37.8526 4.7791 37.7928 4.71931C37.733 4.65952 37.662 4.61209 37.5839 4.57974C37.5058 4.54739 37.4221 4.53075 37.3375 4.53076Z" fill="#62DBFB"/>
<path d="M49.4895 18.219C53.0304 18.219 55.9009 15.3485 55.9009 11.8076C55.9009 8.26671 53.0304 5.39624 49.4895 5.39624C45.9486 5.39624 43.0781 8.26671 43.0781 11.8076C43.0781 15.3485 45.9486 18.219 49.4895 18.219Z" fill="#5DE1C4"/>
<path d="M22.2028 15.7965H13.3749C13.1188 15.7965 12.8732 15.6947 12.692 15.5136C12.5109 15.3325 12.4092 15.0869 12.4092 14.8307C12.4092 14.5746 12.5109 14.329 12.692 14.1479C12.8732 13.9667 13.1188 13.865 13.3749 13.865H22.2028C22.4589 13.865 22.7046 13.9667 22.8857 14.1479C23.0668 14.329 23.1686 14.5746 23.1686 14.8307C23.1686 15.0869 23.0668 15.3325 22.8857 15.5136C22.7046 15.6947 22.4589 15.7965 22.2028 15.7965ZM37.6556 20.9292H13.3749C13.1188 20.9292 12.8732 20.8275 12.692 20.6464C12.5109 20.4653 12.4092 20.2196 12.4092 19.9635C12.4092 19.7074 12.5109 19.4617 12.692 19.2806C12.8732 19.0995 13.1188 18.9977 13.3749 18.9977H37.6554C37.9116 18.9977 38.1572 19.0995 38.3383 19.2806C38.5195 19.4617 38.6212 19.7073 38.6212 19.9634C38.6213 20.2196 38.5195 20.4652 38.3384 20.6463C38.1573 20.8275 37.9117 20.9292 37.6556 20.9292ZM37.6556 26.0619H13.3749C13.1188 26.0619 12.8732 25.9601 12.692 25.779C12.5109 25.5979 12.4092 25.3522 12.4092 25.0961C12.4092 24.84 12.5109 24.5943 12.692 24.4132C12.8732 24.2321 13.1188 24.1304 13.3749 24.1304H37.6554C37.9116 24.1303 38.1572 24.2321 38.3383 24.4132C38.5195 24.5943 38.6212 24.8399 38.6212 25.0961C38.6213 25.3522 38.5195 25.5978 38.3384 25.779C38.1573 25.9601 37.9117 26.0618 37.6556 26.0619Z" fill="#7A8C98"/>
<path d="M48.8705 13.9676C48.6908 13.968 48.5129 13.9328 48.3469 13.8642C48.1809 13.7956 48.0301 13.6948 47.9031 13.5677L46.7875 12.4521C46.6971 12.3626 46.6252 12.2561 46.5761 12.1387C46.527 12.0213 46.5015 11.8954 46.5012 11.7682C46.5009 11.641 46.5257 11.5149 46.5743 11.3973C46.6228 11.2797 46.6941 11.1728 46.7841 11.0829C46.8741 10.9929 46.9809 10.9216 47.0985 10.873C47.2161 10.8245 47.3422 10.7996 47.4694 10.7999C47.5966 10.8002 47.7225 10.8257 47.8399 10.8748C47.9573 10.9239 48.0638 10.9957 48.1533 11.0861L48.8706 11.8034L50.7443 9.92949C50.8339 9.83909 50.9404 9.76728 51.0578 9.71816C51.1751 9.66905 51.3011 9.64362 51.4283 9.64331C51.5555 9.64301 51.6816 9.66785 51.7992 9.7164C51.9168 9.76496 52.0236 9.83627 52.1136 9.92624C52.2036 10.0162 52.2749 10.1231 52.3234 10.2407C52.3719 10.3583 52.3968 10.4843 52.3965 10.6116C52.3961 10.7388 52.3707 10.8647 52.3216 10.9821C52.2724 11.0995 52.2006 11.206 52.1102 11.2955L49.8382 13.5675C49.7112 13.6946 49.5603 13.7954 49.3942 13.8641C49.2282 13.9327 49.0502 13.9679 48.8705 13.9676Z" fill="#FFE177"/>
<path d="M57.8911 47.0872C62.1822 42.7961 62.2027 35.8515 57.9526 31.5351C53.7828 27.3004 46.9388 27.1369 42.5824 31.1793C38.8182 34.6721 38.057 40.1167 40.2986 44.399C40.5426 44.8651 40.5582 45.4174 40.3249 45.889L38.6129 49.3491C38.1688 50.2468 39.1177 51.1957 40.0153 50.7515L43.4614 49.0465C43.9301 48.8146 44.4837 48.8125 44.9465 49.0558C45.9882 49.6038 47.1833 49.9872 48.3184 50.1792C48.3184 50.1792 55.2631 49.7153 57.8911 47.0872Z" fill="#FFF8BF"/>
<path d="M52.2158 46.9363C50.6784 46.9363 49.4277 45.6856 49.4277 44.1483V38.5766C49.4277 38.3946 49.5 38.2201 49.6287 38.0914C49.7574 37.9627 49.932 37.8904 50.114 37.8904C50.296 37.8904 50.4705 37.9627 50.5992 38.0914C50.7279 38.2201 50.8002 38.3946 50.8002 38.5766V44.1483C50.8002 44.9288 51.4352 45.5638 52.2157 45.5638C52.3977 45.5638 52.5722 45.6361 52.7009 45.7648C52.8296 45.8935 52.902 46.068 52.902 46.25C52.902 46.432 52.8297 46.6066 52.701 46.7353C52.5723 46.864 52.3978 46.9363 52.2158 46.9363Z" fill="#8EBAC5"/>
<path d="M56.1157 40.1137C55.9337 40.1137 55.7592 40.0414 55.6305 39.9127C55.5018 39.784 55.4295 39.6094 55.4295 39.4274V38.5769C55.4295 38.3949 55.5018 38.2203 55.6305 38.0916C55.7592 37.9629 55.9337 37.8906 56.1157 37.8906C56.2977 37.8906 56.4723 37.9629 56.601 38.0916C56.7296 38.2203 56.8019 38.3949 56.8019 38.5769V39.4274C56.8019 39.6094 56.7296 39.784 56.601 39.9127C56.4723 40.0414 56.2977 40.1137 56.1157 40.1137ZM44.112 40.1137C43.93 40.1137 43.7555 40.0414 43.6268 39.9127C43.4981 39.784 43.4258 39.6094 43.4258 39.4274V38.5769C43.4258 38.3949 43.4981 38.2203 43.6268 38.0916C43.7555 37.9629 43.93 37.8906 44.112 37.8906C44.294 37.8906 44.4686 37.9629 44.5973 38.0916C44.726 38.2203 44.7983 38.3949 44.7983 38.5769V39.4274C44.7983 39.6094 44.726 39.784 44.5973 39.9127C44.4686 40.0414 44.294 40.1137 44.112 40.1137Z" fill="#FD8087"/>
<path d="M56.802 38.5768H52.5264L50.1139 36.6684L47.7014 38.5768H43.4258C43.4258 34.883 46.4202 31.8887 50.1139 31.8887C53.8077 31.8887 56.802 34.883 56.802 38.5768Z" fill="#FE99A0"/>
<path d="M52.5264 38.5768H47.7014C47.7014 34.883 48.7815 31.8887 50.1139 31.8887C51.4463 31.8887 52.5264 34.883 52.5264 38.5768Z" fill="#FD8087"/>
<path d="M57.8914 47.0872C55.2844 49.6932 51.6994 50.7244 48.3183 50.1791C50.5299 49.8232 52.6546 48.7919 54.3594 47.0872C58.6509 42.7956 58.671 35.8515 54.4216 31.5353C52.7142 29.8013 50.5584 28.7499 48.3083 28.3904C51.7296 27.8423 55.3586 28.9009 57.9527 31.5353C62.203 35.8515 62.1819 42.7957 57.8914 47.0872Z" fill="#FCF2A9"/>
</svg>
